#N canvas 618 62 822 689 10;
#X obj 8 51 unpack s f f f f f;
#X msg -68 108 set \$1;
#X obj 97 264 unpack f f f f f f f f;
#X floatatom 79 297 10 0 0 0 - - -;
#X floatatom 93 320 10 0 0 0 - - -;
#X floatatom 106 343 10 0 0 0 - - -;
#X floatatom 121 364 10 0 0 0 - - -;
#X floatatom 184 301 10 0 0 0 - - -;
#X floatatom 197 326 10 0 0 0 - - -;
#X floatatom 204 347 10 0 0 0 - - -;
#X floatatom 213 370 10 0 0 0 - - -;
#N canvas 0 22 613 597 key 0;
#X obj 88 374 *~;
#X obj 106 323 line~;
#X msg 106 296 \$1 20;
#X obj 106 159 vsl 15 128 0 1 0 0 empty empty empty 0 -8 0 8 -262144
-1 -1 3175 1;
#X obj 90 109 osc~;
#X obj 105 41 inlet~;
#X obj 88 465 outlet~;
#X obj 240 56 inlet;
#X connect 0 0 6 0;
#X connect 1 0 0 1;
#X connect 2 0 1 0;
#X connect 3 0 2 0;
#X connect 4 0 0 0;
#X connect 5 0 4 0;
#X connect 7 0 3 0;
#X restore -35 408 pd key;
#X obj 88 607 dac~;
#X obj -13 297 loadbang;
#X obj -13 325 nbx 5 14 0.25 1e+37 0 0 empty empty empty 0 -8 0 10
-262144 -1 -1 0.25 256;
#X obj 318 541 line~;
#X msg 318 513 \$1 20;
#X obj 330 486 hsl 128 15 0 1 0 0 empty empty empty -2 -6 0 8 -262144
-1 -1 3175 1;
#N canvas 0 22 613 597 key 0;
#X obj 88 374 *~;
#X obj 106 323 line~;
#X msg 106 296 \$1 20;
#X obj 106 159 vsl 15 128 0 1 0 0 empty empty empty 0 -8 0 8 -262144
-1 -1 3175 1;
#X obj 90 109 osc~;
#X obj 105 41 inlet~;
#X obj 88 465 outlet~;
#X obj 240 56 inlet;
#X connect 0 0 6 0;
#X connect 1 0 0 1;
#X connect 2 0 1 0;
#X connect 3 0 2 0;
#X connect 4 0 0 0;
#X connect 5 0 4 0;
#X connect 7 0 3 0;
#X restore 13 408 pd key;
#N canvas 0 22 450 300 (subpatch) 0;
#X array array1 10 float 5;
#A 0 0.5 0.5 0.5 0.5 0.5 0.5 0.5 0.5 0.5 0.5;
#X coords 0 1 9 -1 200 140 1;
#X restore 359 530 graph;
#X obj 151 597 tabwrite~ array1;
#X obj 126 569 tgl 15 0 empty empty empty 17 7 0 10 -262144 -1 -1 1
1;
#X msg 147 17 \; pd dsp 1;
#X msg 222 17 \; pd dsp 0;
#N canvas 0 22 613 597 key 0;
#X obj 88 374 *~;
#X obj 106 323 line~;
#X msg 106 296 \$1 20;
#X obj 106 159 vsl 15 128 0 1 0 0 empty empty empty 0 -8 0 8 -262144
-1 -1 3175 1;
#X obj 90 109 osc~;
#X obj 105 41 inlet~;
#X obj 88 465 outlet~;
#X obj 240 56 inlet;
#X connect 0 0 6 0;
#X connect 1 0 0 1;
#X connect 2 0 1 0;
#X connect 3 0 2 0;
#X connect 4 0 0 0;
#X connect 5 0 4 0;
#X connect 7 0 3 0;
#X restore 61 408 pd key;
#N canvas 0 22 613 597 key 0;
#X obj 88 374 *~;
#X obj 106 323 line~;
#X msg 106 296 \$1 20;
#X obj 106 159 vsl 15 128 0 1 0 0 empty empty empty 0 -8 0 8 -262144
-1 -1 3175 1;
#X obj 90 109 osc~;
#X obj 105 41 inlet~;
#X obj 88 465 outlet~;
#X obj 240 56 inlet;
#X connect 0 0 6 0;
#X connect 1 0 0 1;
#X connect 2 0 1 0;
#X connect 3 0 2 0;
#X connect 4 0 0 0;
#X connect 5 0 4 0;
#X connect 7 0 3 0;
#X restore 108 408 pd key;
#N canvas 0 22 613 597 key 0;
#X obj 88 374 *~;
#X obj 106 323 line~;
#X msg 106 296 \$1 20;
#X obj 106 159 vsl 15 128 0 1 0 0 empty empty empty 0 -8 0 8 -262144
-1 -1 3175 1;
#X obj 90 109 osc~;
#X obj 105 41 inlet~;
#X obj 88 465 outlet~;
#X obj 240 56 inlet;
#X connect 0 0 6 0;
#X connect 1 0 0 1;
#X connect 2 0 1 0;
#X connect 3 0 2 0;
#X connect 4 0 0 0;
#X connect 5 0 4 0;
#X connect 7 0 3 0;
#X restore 157 408 pd key;
#N canvas 0 22 613 597 key 0;
#X obj 88 374 *~;
#X obj 106 323 line~;
#X msg 106 296 \$1 20;
#X obj 106 159 vsl 15 128 0 1 0 0 empty empty empty 0 -8 0 8 -262144
-1 -1 3175 1;
#X obj 90 109 osc~;
#X obj 105 41 inlet~;
#X obj 88 465 outlet~;
#X obj 240 56 inlet;
#X connect 0 0 6 0;
#X connect 1 0 0 1;
#X connect 2 0 1 0;
#X connect 3 0 2 0;
#X connect 4 0 0 0;
#X connect 5 0 4 0;
#X connect 7 0 3 0;
#X restore 206 408 pd key;
#N canvas 0 22 613 597 key 0;
#X obj 88 374 *~;
#X obj 106 323 line~;
#X msg 106 296 \$1 20;
#X obj 106 159 vsl 15 128 0 1 0 0 empty empty empty 0 -8 0 8 -262144
-1 -1 3175 1;
#X obj 90 109 osc~;
#X obj 105 41 inlet~;
#X obj 88 465 outlet~;
#X obj 240 56 inlet;
#X connect 0 0 6 0;
#X connect 1 0 0 1;
#X connect 2 0 1 0;
#X connect 3 0 2 0;
#X connect 4 0 0 0;
#X connect 5 0 4 0;
#X connect 7 0 3 0;
#X restore 254 408 pd key;
#N canvas 0 22 613 597 key 0;
#X obj 88 374 *~;
#X obj 106 323 line~;
#X msg 106 296 \$1 20;
#X obj 106 159 vsl 15 128 0 1 0 0 empty empty empty 0 -8 0 8 -262144
-1 -1 3175 1;
#X obj 90 109 osc~;
#X obj 105 41 inlet~;
#X obj 88 465 outlet~;
#X obj 240 56 inlet;
#X connect 0 0 6 0;
#X connect 1 0 0 1;
#X connect 2 0 1 0;
#X connect 3 0 2 0;
#X connect 4 0 0 0;
#X connect 5 0 4 0;
#X connect 7 0 3 0;
#X restore 302 408 pd key;
#X obj -24 631 print;
#X floatatom 392 120 5 0 0 0 - - -;
#X obj 387 90 tabread array1;
#X floatatom 387 60 5 0 0 0 - - -;
#X obj 502 332 sendOSC;
#X obj 539 242 loadbang;
#X obj 425 188 pack f;
#X obj 151 569 metro 20;
#X obj 95 569 *~;
#X msg 426 219 send /metro \$1;
#X msg 539 266 connect localhost 44000;
#X obj 5 13 dumpOSC 44001;
#X msg -67 152 /input;
#X obj 97 191 route /input;
#X connect 0 0 1 0;
#X connect 1 0 42 0;
#X connect 2 0 3 0;
#X connect 2 1 4 0;
#X connect 2 2 5 0;
#X connect 2 3 6 0;
#X connect 2 4 7 0;
#X connect 2 5 8 0;
#X connect 2 6 9 0;
#X connect 2 7 10 0;
#X connect 3 0 11 0;
#X connect 4 0 18 0;
#X connect 5 0 24 0;
#X connect 6 0 25 0;
#X connect 7 0 26 0;
#X connect 8 0 27 0;
#X connect 9 0 28 0;
#X connect 10 0 29 0;
#X connect 11 0 38 0;
#X connect 13 0 14 0;
#X connect 13 0 22 0;
#X connect 14 0 11 1;
#X connect 14 0 18 1;
#X connect 14 0 24 1;
#X connect 14 0 25 1;
#X connect 14 0 26 1;
#X connect 14 0 27 1;
#X connect 14 0 28 1;
#X connect 14 0 29 1;
#X connect 14 0 17 0;
#X connect 15 0 38 1;
#X connect 16 0 15 0;
#X connect 17 0 16 0;
#X connect 18 0 38 0;
#X connect 21 0 37 0;
#X connect 24 0 38 0;
#X connect 25 0 38 0;
#X connect 26 0 38 0;
#X connect 27 0 38 0;
#X connect 28 0 38 0;
#X connect 29 0 38 0;
#X connect 31 0 36 0;
#X connect 32 0 31 0;
#X connect 33 0 32 0;
#X connect 35 0 40 0;
#X connect 35 0 31 0;
#X connect 35 0 21 0;
#X connect 36 0 39 0;
#X connect 37 0 20 0;
#X connect 37 0 33 0;
#X connect 38 0 12 0;
#X connect 38 0 12 1;
#X connect 38 0 20 0;
#X connect 39 0 34 0;
#X connect 40 0 34 0;
#X connect 41 0 0 0;
#X connect 41 0 43 0;
#X connect 43 0 2 0;
