#N canvas 697 101 664 651 10;
#X floatatom 100 173 5 0 0 0 - - -;
#X msg 81 192 set \$1;
#X obj 23 173 print;
#N canvas 0 22 450 300 (subpatch) 0;
#X array am 1000 float 0;
#X coords 0 1 999 -1 200 100 1;
#X restore 301 126 graph;
#X obj 268 305 tgl 15 1 empty empty empty 0 -6 0 10 -262144 -1 -1 1
1;
#X obj 189 391 dac~;
#X text 279 217 -1;
#X text 285 172 0;
#X text 285 125 1;
#X obj 231 358 tabwrite~ am;
#X obj 189 228 *~;
#X obj 268 330 metro 100;
#X obj 204 158 nbx 5 14 -1e+37 1e+37 0 0 empty empty empty 0 -6 0 10
-262144 -1 -1 0 256;
#X obj 52 305 expr~ $v1 > $v2;
#X obj -4 245 nbx 5 14 0 100 0 1 empty empty pulse_width_(0-100) 60
6 0 10 -262144 -1 -1 22 256;
#X obj 135 272 / 100;
#X obj 204 192 osc~ 0.9;
#X obj 80 135 unpack s f f;
#X floatatom 152 180 5 0 0 0 - - -;
#X obj 241 76 / 10;
#X obj 169 37 * 44;
#X obj 330 60 mtof;
#X obj 189 117 phasor~;
#X obj 288 25 loadbang;
#X msg 381 25 \; pd dsp 1;
#X msg 453 25 \; pd dsp 0;
#X text 402 0 sound on/off;
#X obj 228 29 % 3000;
#X obj 61 76 dumpOSC 44001;
#X msg 96 218 /input;
#X connect 1 0 29 0;
#X connect 4 0 11 0;
#X connect 10 0 13 0;
#X connect 11 0 9 0;
#X connect 12 0 16 0;
#X connect 13 0 5 0;
#X connect 13 0 5 1;
#X connect 13 0 9 0;
#X connect 14 0 15 0;
#X connect 15 0 13 1;
#X connect 16 0 10 1;
#X connect 17 0 1 0;
#X connect 17 0 2 0;
#X connect 17 1 0 0;
#X connect 17 1 27 0;
#X connect 17 2 18 0;
#X connect 17 2 20 0;
#X connect 18 0 20 0;
#X connect 20 0 22 0;
#X connect 21 0 22 0;
#X connect 22 0 10 0;
#X connect 23 0 24 0;
#X connect 27 0 12 0;
#X connect 28 0 17 0;
