#N canvas 472 22 1131 744 10;
#N canvas 192 231 1260 766 fouriersub 0;
#X obj 164 15 inlet~;
#X obj 227 53 rfft~;
#X obj 219 114 *~;
#X obj 260 116 *~;
#X obj 245 171 +~;
#X obj 299 89 print~ fourier:;
#X obj 247 239 print~ sqrt:;
#X obj 349 42 bng 15 250 50 0 empty empty empty 17 7 0 10 -262144 -1
-1;
#X obj 197 206 bng 15 250 50 0 empty empty empty 17 7 0 10 -262144
-1 -1;
#X obj 122 114 tgl 15 0 empty empty empty 17 7 0 10 -262144 -1 -1 0
1;
#X obj 124 147 metro 200;
#X obj 246 213 q8_sqrt~;
#N canvas 0 22 450 300 (subpatch) 0;
#X array \$0-magnitude 256 float 0;
#X coords 0 512 255 0 320 240 1;
#X restore 185 356 graph;
#X obj 148 301 tabwrite~ \$0-magnitude;
#X obj 140 235 tgl 15 0 empty empty empty 0 -6 0 8 -262144 -1 -1 1
1;
#X obj 95 277 bng 15 250 50 0 empty empty empty 17 7 0 10 -262144 -1
-1;
#X obj 140 256 metro 100;
#X text 149 348 512;
#X text 148 579 256;
#X text 688 76 8 block size: 750 hz;
#X text 569 118 0 - 750;
#X text 571 162 750 - 1500;
#X text 576 198 1500 - 2250;
#X text 577 240 2250 - 3000;
#X text 796 118 3000 - 3750;
#X text 798 156 3750 - 4500;
#X text 788 194 4500 - 5250;
#X text 796 237 5250 - 6000;
#X text 708 47 32 samples per grote block van 750 hz;
#X text 506 55 23 \, 4375 hz per sample;
#X obj 140 212 r onoff;
#X obj 254 19 block~ 4096;
#X connect 0 0 1 0;
#X connect 1 0 2 0;
#X connect 1 0 2 1;
#X connect 1 0 5 0;
#X connect 1 1 3 0;
#X connect 1 1 3 1;
#X connect 2 0 4 0;
#X connect 3 0 4 1;
#X connect 4 0 11 0;
#X connect 7 0 5 0;
#X connect 8 0 6 0;
#X connect 9 0 10 0;
#X connect 10 0 8 0;
#X connect 11 0 6 0;
#X connect 11 0 13 0;
#X connect 14 0 16 0;
#X connect 15 0 13 0;
#X connect 16 0 13 0;
#X connect 30 0 14 0;
#X restore 545 -88 pd fouriersub;
#X obj 507 -174 adc~;
#N canvas 176 62 941 742 average-array-for-8-blocks 0;
#X obj -43 122 inlet;
#X obj -372 519 outlet;
#X obj -382 -78 bng 15 250 50 0 empty empty empty 17 7 0 10 -262144
-1 -1;
#X obj -358 13 +;
#X floatatom -329 13 20 0 0 0 - - -;
#X obj -307 -77 delay 1;
#X obj -358 38 i;
#X msg -250 -13 0;
#X floatatom -361 64 5 0 0 0 - - -;
#N canvas 503 315 450 300 generate-numbers 0;
#X obj 175 -23 inlet;
#X obj 195 177 outlet;
#X obj 175 5 expr 0 \; 1 \; 2 \; 3;
#X floatatom 194 71 5 0 0 0 - - -;
#X obj 236 71 + 4;
#X floatatom 194 94 5 0 0 0 - - -;
#X obj 236 96 + 8;
#X obj 234 118 + 16;
#X floatatom 194 117 5 0 0 0 - - -;
#X floatatom 194 139 5 0 0 0 - - -;
#X connect 0 0 2 0;
#X connect 2 0 3 0;
#X connect 2 1 3 0;
#X connect 2 2 3 0;
#X connect 2 3 3 0;
#X connect 3 0 4 0;
#X connect 3 0 5 0;
#X connect 4 0 5 0;
#X connect 5 0 6 0;
#X connect 5 0 8 0;
#X connect 6 0 8 0;
#X connect 7 0 9 0;
#X connect 8 0 7 0;
#X connect 8 0 9 0;
#X connect 9 0 1 0;
#X restore -381 -54 pd generate-numbers;
#X obj -328 519 outlet;
#X obj -180 -75 bng 15 250 50 0 empty empty empty 17 7 0 10 -262144
-1 -1;
#X obj -184 22 tabread \$0-magnitude;
#X obj -152 54 +;
#X floatatom -123 54 20 0 0 0 - - -;
#X obj -105 -74 delay 1;
#X obj -152 79 i;
#X msg -44 28 0;
#X floatatom -156 110 5 0 0 0 - - -;
#N canvas 569 315 148 297 generate-numbers 0;
#X obj 16 -12 inlet;
#X obj 36 188 outlet;
#X obj 16 16 expr 0 \; 1 \; 2 \; 3;
#X floatatom 35 82 5 0 0 0 - - -;
#X obj 77 82 + 4;
#X floatatom 35 105 5 0 0 0 - - -;
#X obj 77 107 + 8;
#X obj 75 129 + 16;
#X floatatom 35 128 5 0 0 0 - - -;
#X floatatom 35 150 5 0 0 0 - - -;
#X connect 0 0 2 0;
#X connect 2 0 3 0;
#X connect 2 1 3 0;
#X connect 2 2 3 0;
#X connect 2 3 3 0;
#X connect 3 0 4 0;
#X connect 3 0 5 0;
#X connect 4 0 5 0;
#X connect 5 0 6 0;
#X connect 5 0 8 0;
#X connect 6 0 8 0;
#X connect 7 0 9 0;
#X connect 8 0 7 0;
#X connect 8 0 9 0;
#X connect 9 0 1 0;
#X restore -179 -51 pd generate-numbers;
#X obj -178 -17 + 32;
#X obj -284 519 outlet;
#X obj 25 -78 bng 15 250 50 0 empty empty empty 17 7 0 10 -262144 -1
-1;
#X obj 21 19 tabread \$0-magnitude;
#X obj 53 51 +;
#X floatatom 82 51 20 0 0 0 - - -;
#X obj 100 -77 delay 1;
#X obj 53 76 i;
#X msg 161 25 0;
#X floatatom 50 102 5 0 0 0 - - -;
#N canvas 503 315 450 300 generate-numbers 0;
#X obj 175 -23 inlet;
#X obj 195 177 outlet;
#X obj 175 5 expr 0 \; 1 \; 2 \; 3;
#X floatatom 194 71 5 0 0 0 - - -;
#X obj 236 71 + 4;
#X floatatom 194 94 5 0 0 0 - - -;
#X obj 236 96 + 8;
#X obj 234 118 + 16;
#X floatatom 194 117 5 0 0 0 - - -;
#X floatatom 194 139 5 0 0 0 - - -;
#X connect 0 0 2 0;
#X connect 2 0 3 0;
#X connect 2 1 3 0;
#X connect 2 2 3 0;
#X connect 2 3 3 0;
#X connect 3 0 4 0;
#X connect 3 0 5 0;
#X connect 4 0 5 0;
#X connect 5 0 6 0;
#X connect 5 0 8 0;
#X connect 6 0 8 0;
#X connect 7 0 9 0;
#X connect 8 0 7 0;
#X connect 8 0 9 0;
#X connect 9 0 1 0;
#X restore 26 -54 pd generate-numbers;
#X obj -240 519 outlet;
#X obj 216 -84 bng 15 250 50 0 empty empty empty 17 7 0 10 -262144
-1 -1;
#X obj 212 13 tabread \$0-magnitude;
#X obj 244 45 +;
#X floatatom 273 45 20 0 0 0 - - -;
#X obj 291 -83 delay 1;
#X obj 244 70 i;
#X msg 352 19 0;
#X floatatom 241 96 5 0 0 0 - - -;
#N canvas 503 315 450 300 generate-numbers 0;
#X obj 175 -23 inlet;
#X obj 195 177 outlet;
#X obj 175 5 expr 0 \; 1 \; 2 \; 3;
#X floatatom 194 71 5 0 0 0 - - -;
#X obj 236 71 + 4;
#X floatatom 194 94 5 0 0 0 - - -;
#X obj 236 96 + 8;
#X obj 234 118 + 16;
#X floatatom 194 117 5 0 0 0 - - -;
#X floatatom 194 139 5 0 0 0 - - -;
#X connect 0 0 2 0;
#X connect 2 0 3 0;
#X connect 2 1 3 0;
#X connect 2 2 3 0;
#X connect 2 3 3 0;
#X connect 3 0 4 0;
#X connect 3 0 5 0;
#X connect 4 0 5 0;
#X connect 5 0 6 0;
#X connect 5 0 8 0;
#X connect 6 0 8 0;
#X connect 7 0 9 0;
#X connect 8 0 7 0;
#X connect 8 0 9 0;
#X connect 9 0 1 0;
#X restore 217 -60 pd generate-numbers;
#X obj -196 519 outlet;
#X obj -372 231 bng 15 250 50 0 empty empty empty 17 7 0 10 -262144
-1 -1;
#X obj -376 328 tabread \$0-magnitude;
#X obj -344 360 +;
#X floatatom -315 360 20 0 0 0 - - -;
#X obj -297 232 delay 1;
#X obj -344 385 i;
#X msg -236 334 0;
#X floatatom -347 411 5 0 0 0 - - -;
#N canvas 503 315 450 300 generate-numbers 0;
#X obj 175 -23 inlet;
#X obj 195 177 outlet;
#X obj 175 5 expr 0 \; 1 \; 2 \; 3;
#X floatatom 194 71 5 0 0 0 - - -;
#X obj 236 71 + 4;
#X floatatom 194 94 5 0 0 0 - - -;
#X obj 236 96 + 8;
#X obj 234 118 + 16;
#X floatatom 194 117 5 0 0 0 - - -;
#X floatatom 194 139 5 0 0 0 - - -;
#X connect 0 0 2 0;
#X connect 2 0 3 0;
#X connect 2 1 3 0;
#X connect 2 2 3 0;
#X connect 2 3 3 0;
#X connect 3 0 4 0;
#X connect 3 0 5 0;
#X connect 4 0 5 0;
#X connect 5 0 6 0;
#X connect 5 0 8 0;
#X connect 6 0 8 0;
#X connect 7 0 9 0;
#X connect 8 0 7 0;
#X connect 8 0 9 0;
#X connect 9 0 1 0;
#X restore -371 255 pd generate-numbers;
#X obj -152 519 outlet;
#X obj -160 218 bng 15 250 50 0 empty empty empty 17 7 0 10 -262144
-1 -1;
#X obj -164 315 tabread \$0-magnitude;
#X obj -132 347 +;
#X floatatom -103 347 20 0 0 0 - - -;
#X obj -85 219 delay 1;
#X obj -132 372 i;
#X msg -24 321 0;
#X floatatom -135 398 5 0 0 0 - - -;
#N canvas 503 315 450 300 generate-numbers 0;
#X obj 175 -23 inlet;
#X obj 195 177 outlet;
#X obj 175 5 expr 0 \; 1 \; 2 \; 3;
#X floatatom 194 71 5 0 0 0 - - -;
#X obj 236 71 + 4;
#X floatatom 194 94 5 0 0 0 - - -;
#X obj 236 96 + 8;
#X obj 234 118 + 16;
#X floatatom 194 117 5 0 0 0 - - -;
#X floatatom 194 139 5 0 0 0 - - -;
#X connect 0 0 2 0;
#X connect 2 0 3 0;
#X connect 2 1 3 0;
#X connect 2 2 3 0;
#X connect 2 3 3 0;
#X connect 3 0 4 0;
#X connect 3 0 5 0;
#X connect 4 0 5 0;
#X connect 5 0 6 0;
#X connect 5 0 8 0;
#X connect 6 0 8 0;
#X connect 7 0 9 0;
#X connect 8 0 7 0;
#X connect 8 0 9 0;
#X connect 9 0 1 0;
#X restore -159 242 pd generate-numbers;
#X obj -108 519 outlet;
#X obj 49 209 bng 15 250 50 0 empty empty empty 17 7 0 10 -262144 -1
-1;
#X obj 45 306 tabread \$0-magnitude;
#X obj 77 338 +;
#X floatatom 106 338 20 0 0 0 - - -;
#X obj 124 210 delay 1;
#X obj 77 363 i;
#X msg 185 312 0;
#X floatatom 74 389 5 0 0 0 - - -;
#N canvas 503 315 450 300 generate-numbers 0;
#X obj 175 -23 inlet;
#X obj 195 177 outlet;
#X obj 175 5 expr 0 \; 1 \; 2 \; 3;
#X floatatom 194 71 5 0 0 0 - - -;
#X obj 236 71 + 4;
#X floatatom 194 94 5 0 0 0 - - -;
#X obj 236 96 + 8;
#X obj 234 118 + 16;
#X floatatom 194 117 5 0 0 0 - - -;
#X floatatom 194 139 5 0 0 0 - - -;
#X connect 0 0 2 0;
#X connect 2 0 3 0;
#X connect 2 1 3 0;
#X connect 2 2 3 0;
#X connect 2 3 3 0;
#X connect 3 0 4 0;
#X connect 3 0 5 0;
#X connect 4 0 5 0;
#X connect 5 0 6 0;
#X connect 5 0 8 0;
#X connect 6 0 8 0;
#X connect 7 0 9 0;
#X connect 8 0 7 0;
#X connect 8 0 9 0;
#X connect 9 0 1 0;
#X restore 50 233 pd generate-numbers;
#X obj -64 519 outlet;
#X obj 253 201 bng 15 250 50 0 empty empty empty 17 7 0 10 -262144
-1 -1;
#X obj 249 298 tabread \$0-magnitude;
#X obj 281 330 +;
#X floatatom 310 330 20 0 0 0 - - -;
#X obj 328 202 delay 1;
#X obj 281 355 i;
#X msg 389 304 0;
#X floatatom 278 381 5 0 0 0 - - -;
#N canvas 503 315 450 300 generate-numbers 0;
#X obj 175 -23 inlet;
#X obj 195 177 outlet;
#X obj 175 5 expr 0 \; 1 \; 2 \; 3;
#X floatatom 194 71 5 0 0 0 - - -;
#X obj 236 71 + 4;
#X floatatom 194 94 5 0 0 0 - - -;
#X obj 236 96 + 8;
#X obj 234 118 + 16;
#X floatatom 194 117 5 0 0 0 - - -;
#X floatatom 194 139 5 0 0 0 - - -;
#X connect 0 0 2 0;
#X connect 2 0 3 0;
#X connect 2 1 3 0;
#X connect 2 2 3 0;
#X connect 2 3 3 0;
#X connect 3 0 4 0;
#X connect 3 0 5 0;
#X connect 4 0 5 0;
#X connect 5 0 6 0;
#X connect 5 0 8 0;
#X connect 6 0 8 0;
#X connect 7 0 9 0;
#X connect 8 0 7 0;
#X connect 8 0 9 0;
#X connect 9 0 1 0;
#X restore 254 225 pd generate-numbers;
#X obj 27 -20 + 64;
#X obj 218 -26 + 96;
#X obj -370 289 + 128;
#X obj -158 276 + 160;
#X obj 51 267 + 192;
#X obj 255 259 + 224;
#X obj -361 85 / 32;
#X obj -156 133 / 32;
#X obj 53 128 / 32;
#X obj 242 125 / 32;
#X obj -346 439 / 32;
#X obj -135 427 / 32;
#X obj 73 414 / 32;
#X obj 280 406 / 32;
#X obj -390 -19 tabread \$0-magnitude;
#X connect 0 0 2 0;
#X connect 0 0 11 0;
#X connect 0 0 22 0;
#X connect 0 0 32 0;
#X connect 0 0 42 0;
#X connect 0 0 52 0;
#X connect 0 0 62 0;
#X connect 0 0 72 0;
#X connect 2 0 5 0;
#X connect 2 0 9 0;
#X connect 3 0 4 0;
#X connect 4 0 3 1;
#X connect 4 0 6 1;
#X connect 5 0 6 0;
#X connect 5 0 7 0;
#X connect 6 0 8 0;
#X connect 7 0 4 0;
#X connect 8 0 87 0;
#X connect 9 0 95 0;
#X connect 11 0 15 0;
#X connect 11 0 19 0;
#X connect 12 0 13 0;
#X connect 13 0 14 0;
#X connect 14 0 13 1;
#X connect 14 0 16 1;
#X connect 15 0 16 0;
#X connect 15 0 17 0;
#X connect 16 0 18 0;
#X connect 17 0 14 0;
#X connect 18 0 88 0;
#X connect 19 0 20 0;
#X connect 20 0 12 0;
#X connect 22 0 26 0;
#X connect 22 0 30 0;
#X connect 23 0 24 0;
#X connect 24 0 25 0;
#X connect 25 0 24 1;
#X connect 25 0 27 1;
#X connect 26 0 27 0;
#X connect 26 0 28 0;
#X connect 27 0 29 0;
#X connect 28 0 25 0;
#X connect 29 0 89 0;
#X connect 30 0 81 0;
#X connect 32 0 36 0;
#X connect 32 0 40 0;
#X connect 33 0 34 0;
#X connect 34 0 35 0;
#X connect 35 0 34 1;
#X connect 35 0 37 1;
#X connect 36 0 37 0;
#X connect 36 0 38 0;
#X connect 37 0 39 0;
#X connect 38 0 35 0;
#X connect 39 0 90 0;
#X connect 40 0 82 0;
#X connect 42 0 46 0;
#X connect 42 0 50 0;
#X connect 43 0 44 0;
#X connect 44 0 45 0;
#X connect 45 0 44 1;
#X connect 45 0 47 1;
#X connect 46 0 47 0;
#X connect 46 0 48 0;
#X connect 47 0 49 0;
#X connect 48 0 45 0;
#X connect 49 0 91 0;
#X connect 50 0 83 0;
#X connect 52 0 56 0;
#X connect 52 0 60 0;
#X connect 53 0 54 0;
#X connect 54 0 55 0;
#X connect 55 0 54 1;
#X connect 55 0 57 1;
#X connect 56 0 57 0;
#X connect 56 0 58 0;
#X connect 57 0 59 0;
#X connect 58 0 55 0;
#X connect 59 0 92 0;
#X connect 60 0 84 0;
#X connect 62 0 66 0;
#X connect 62 0 70 0;
#X connect 63 0 64 0;
#X connect 64 0 65 0;
#X connect 65 0 64 1;
#X connect 65 0 67 1;
#X connect 66 0 67 0;
#X connect 66 0 68 0;
#X connect 67 0 69 0;
#X connect 68 0 65 0;
#X connect 69 0 93 0;
#X connect 70 0 85 0;
#X connect 72 0 76 0;
#X connect 72 0 80 0;
#X connect 73 0 74 0;
#X connect 74 0 75 0;
#X connect 75 0 74 1;
#X connect 75 0 77 1;
#X connect 76 0 77 0;
#X connect 76 0 78 0;
#X connect 77 0 79 0;
#X connect 78 0 75 0;
#X connect 79 0 94 0;
#X connect 80 0 86 0;
#X connect 81 0 23 0;
#X connect 82 0 33 0;
#X connect 83 0 43 0;
#X connect 84 0 53 0;
#X connect 85 0 63 0;
#X connect 86 0 73 0;
#X connect 87 0 1 0;
#X connect 88 0 10 0;
#X connect 89 0 21 0;
#X connect 90 0 31 0;
#X connect 91 0 41 0;
#X connect 92 0 51 0;
#X connect 93 0 61 0;
#X connect 94 0 71 0;
#X connect 95 0 3 0;
#X restore 221 -327 pd average-array-for-8-blocks;
#X obj 12 -29 tgl 15 0 empty empty empty 17 7 0 10 -262144 -1 -1 1
1;
#X obj 81 -110 s onoff;
#X obj 221 -394 r onoff;
#X obj 221 -371 tgl 15 0 empty empty empty 17 7 0 10 -262144 -1 -1
1 1;
#X obj 12 -52 r onoff;
#X msg 12 -124 \; pd dsp 1;
#X msg 12 -88 \; pd dsp 0;
#X floatatom 218 -269 5 0 0 0 - - -;
#X floatatom 254 -269 5 0 0 0 - - -;
#X floatatom 290 -269 5 0 0 0 - - -;
#X floatatom 326 -269 5 0 0 0 - - -;
#X floatatom 361 -269 5 0 0 0 - - -;
#X floatatom 397 -269 5 0 0 0 - - -;
#X floatatom 433 -269 5 0 0 0 - - -;
#X floatatom 468 -269 5 0 0 0 - - -;
#X obj 81 -185 loadbang;
#X obj 128 -39 sendOSC;
#X obj 326 -102 pack f f f f f f f f;
#X obj 81 -131 tgl 15 0 empty empty empty 0 -6 0 10 -262144 -1 -1 1
1;
#X obj 221 -350 metro 10;
#X obj 786 -274 vsl 15 128 0 127 0 0 empty empty empty 0 -8 0 10 -262144
-1 -1 831 1;
#X obj 761 -274 vsl 15 128 0 127 0 0 empty empty empty 0 -8 0 10 -262144
-1 -1 972 1;
#X obj 737 -274 vsl 15 128 0 127 0 0 empty empty empty 0 -8 0 10 -262144
-1 -1 1359 1;
#X obj 715 -274 vsl 15 128 0 127 0 0 empty empty empty 0 -8 0 10 -262144
-1 -1 319 1;
#X obj 687 -274 vsl 15 128 0 127 0 0 empty empty empty 0 -8 0 10 -262144
-1 -1 516 1;
#X obj 664 -274 vsl 15 128 0 127 0 0 empty empty empty 0 -8 0 10 -262144
-1 -1 578 1;
#X obj 641 -274 vsl 15 128 0 127 0 0 empty empty empty 0 -8 0 10 -262144
-1 -1 334 1;
#X obj 621 -274 vsl 15 128 0 127 0 0 empty empty empty 0 -8 0 10 -262144
-1 -1 187 1;
#X obj 12 -8 metro 5;
#X msg 210 -75 send /equalizer \$1 \$2 \$3 \$4 \$5 \$6 \$7 \$8;
#X text 240 -55 the path from which the data can be retrieved in NodeBox
with PD.get();
#X text 1 -206 loadbang fires when the patch is loaded;
#X msg 128 -139 connect localhost 44000;
#X connect 1 0 0 0;
#X connect 1 1 0 0;
#X connect 2 0 10 0;
#X connect 2 1 11 0;
#X connect 2 2 12 0;
#X connect 2 3 13 0;
#X connect 2 4 14 0;
#X connect 2 5 15 0;
#X connect 2 6 16 0;
#X connect 2 7 17 0;
#X connect 3 0 31 0;
#X connect 5 0 6 0;
#X connect 6 0 22 0;
#X connect 7 0 3 0;
#X connect 10 0 20 0;
#X connect 10 0 30 0;
#X connect 11 0 20 1;
#X connect 11 0 29 0;
#X connect 12 0 20 2;
#X connect 12 0 28 0;
#X connect 13 0 20 3;
#X connect 13 0 27 0;
#X connect 14 0 20 4;
#X connect 14 0 26 0;
#X connect 15 0 20 5;
#X connect 15 0 25 0;
#X connect 16 0 20 6;
#X connect 16 0 24 0;
#X connect 17 0 20 7;
#X connect 17 0 23 0;
#X connect 18 0 35 0;
#X connect 18 0 21 0;
#X connect 18 0 8 0;
#X connect 20 0 32 0;
#X connect 21 0 4 0;
#X connect 22 0 2 0;
#X connect 32 0 19 0;
#X connect 35 0 19 0;
